<svg height="512pt" viewBox="-6 0 512 512.00199" width="512pt" xmlns="http://www.w3.org/2000/svg"><path d="m125.195312 330.570312h102.4375v51.21875h-102.4375zm0 0" fill="#f49642"/><path d="m396.921875 11.285156-11.640625 66.078125-23.054688 21.738281-97.300781 91.761719-120.925781-30.796875 218.226562-128.375zm0 0" fill="#f7c359"/><path d="m385.28125 256.722656v-224.386718c0-13.730469 11.144531-24.875 24.875-24.875 13.738281 0 24.875 11.144531 24.875 24.875v224.386718" fill="#f7c359"/><path d="m396.921875 11.285156-11.640625 66.078125-23.054688 21.738281v-67.410156zm0 0" fill="#f49642"/><path d="m397.980469 313.941406 2.941406 126.003906-.007813.007813c-15.519531 10.390625-22.46875 29.671875-17.15625 47.578125l5.050782 17.011719 69.105468-46.277344c36.734376-24.597656 46.570313-74.324219 21.972657-111.058594l-40.738281-60.832031zm0 0" fill="#f7c359"/><path d="m421.675781 439.953125h-.007812c-15.523438 10.394531-22.46875 29.667969-17.15625 47.578125l1.613281 5.425781-17.300781 11.582031-5.054688-17.007812c-5.316406-17.910156 1.628907-37.183594 17.152344-47.578125h.007813l-2.945313-126.007813 21.253906-14.238281zm0 0" fill="#f49642"/><path d="m449.976562 287.824219c0 21.992187-17.828124 39.820312-39.820312 39.820312s-39.820312-17.828125-39.820312-39.820312c0-21.992188 17.828124-39.820313 39.820312-39.820313s39.820312 17.828125 39.820312 39.820313zm0 0" fill="#305967"/><path d="m425.324219 287.824219c0 8.375-6.789063 15.167969-15.167969 15.167969s-15.167969-6.792969-15.167969-15.167969c0-8.378907 6.789063-15.167969 15.167969-15.167969s15.167969 6.789062 15.167969 15.167969zm0 0" fill="#e6e6e6"/><path d="m294.28125 366.878906h-222.152344c-35.714844 0-64.667968 28.953125-64.667968 64.667969s28.953124 64.667969 64.667968 64.667969h222.152344c35.714844 0 64.667969-28.953125 64.667969-64.667969s-28.953125-64.667969-64.667969-64.667969zm0 0" fill="#305967"/><path d="m72.128906 468.644531c-20.457031 0-37.097656-16.644531-37.097656-37.101562 0-20.453125 16.640625-37.097657 37.097656-37.097657h222.152344c20.457031 0 37.101562 16.644532 37.101562 37.097657 0 20.457031-16.644531 37.101562-37.101562 37.101562zm0 0" fill="#1c414b"/><path d="m109.230469 431.542969c0 20.492187-16.613281 37.101562-37.101563 37.101562-20.488281 0-37.097656-16.609375-37.097656-37.101562 0-20.488281 16.609375-37.097657 37.097656-37.097657 20.488282 0 37.101563 16.609376 37.101563 37.097657zm0 0" fill="#ccc"/><path d="m331.382812 431.542969c0 20.492187-16.609374 37.101562-37.101562 37.101562-20.488281 0-37.097656-16.609375-37.097656-37.101562 0-20.488281 16.609375-37.097657 37.097656-37.097657 20.492188 0 37.101562 16.609376 37.101562 37.097657zm0 0" fill="#ccc"/><path d="m7.460938 235.398438h137.832031v110.085937h-137.832031zm0 0" fill="#e6e6e6"/><path d="m7.460938 235.398438h43.199218v110.085937h-43.199218zm0 0" fill="#ccc"/><path d="m251.238281 160.0625h-120.703125c-7.171875 0-12.988281 5.816406-12.988281 12.988281v172.433594h134.148437c19.480469 0 35.273438-15.796875 35.273438-35.277344v-55.503906c0-9.394531-1.972656-18.6875-5.785156-27.273437zm0 0" fill="#f7c359"/><path d="m150.960938 160.066406c-7.175782 0-12.984376 5.8125-12.984376 12.984375v172.433594h-20.429687v-172.433594c0-7.171875 5.820313-12.984375 12.984375-12.984375zm0 0" fill="#f49642"/><path d="m257.125 246.792969h-109.730469v-56.875h84.445313zm0 0" fill="#8db0c6"/><path d="m257.125 246.792969h-63.511719l21.691407-56.875h16.535156zm0 0" fill="#afccdb"/><path d="m410.203125 310.460938c4.4375 0 8.777344-1.308594 12.546875-3.832032 5.023438-3.363281 8.433594-8.484375 9.609375-14.414062 1.171875-5.929688-.035156-11.960938-3.398437-16.984375-3.363282-5.023438-8.480469-8.433594-14.410157-9.609375-5.929687-1.171875-11.964843.035156-16.988281 3.398437-10.367188 6.945313-13.152344 21.03125-6.207031 31.398438 3.359375 5.019531 8.480469 8.433593 14.410156 9.605469 1.476563.292968 2.960937.4375 4.4375.4375zm-6.449219-18.351563c-2.363281-3.527344-1.417968-8.324219 2.113282-10.691406 1.285156-.859375 2.761718-1.304688 4.273437-1.304688.503906 0 1.007813.050781 1.511719.148438 2.019531.398437 3.761718 1.5625 4.910156 3.273437 1.144531 1.710938 1.554688 3.765625 1.15625 5.78125-.402344 2.019532-1.5625 3.761719-3.273438 4.910156-1.710937 1.144532-3.761718 1.554688-5.785156 1.15625-2.019531-.398437-3.761718-1.5625-4.90625-3.273437zm0 0"/><path d="m273.390625 431.542969c0 11.523437 9.371094 20.898437 20.894531 20.898437 11.519532 0 20.894532-9.375 20.894532-20.898437 0-11.519531-9.375-20.894531-20.894532-20.894531-11.523437 0-20.894531 9.375-20.894531 20.894531zm26.863281 0c0 3.292969-2.679687 5.972656-5.96875 5.972656-3.292968 0-5.972656-2.679687-5.972656-5.972656 0-3.289063 2.679688-5.96875 5.972656-5.96875 3.289063 0 5.96875 2.679687 5.96875 5.96875zm0 0"/><path d="m93.023438 431.542969c0-11.519531-9.371094-20.894531-20.894532-20.894531-11.519531 0-20.894531 9.375-20.894531 20.894531 0 11.523437 9.375 20.898437 20.894531 20.898437 11.523438 0 20.894532-9.375 20.894532-20.898437zm-26.863282 0c0-3.289063 2.675782-5.96875 5.96875-5.96875 3.292969 0 5.96875 2.679687 5.96875 5.96875 0 3.292969-2.675781 5.972656-5.96875 5.972656-3.292968 0-5.96875-2.679687-5.96875-5.972656zm0 0"/><path d="m72.128906 386.984375c-24.570312 0-44.558594 19.988281-44.558594 44.558594 0 24.566406 19.976563 44.550781 44.539063 44.5625h.023437.015626 222.117187.019531.019532c24.5625-.011719 44.539062-19.996094 44.539062-44.5625 0-24.570313-19.988281-44.558594-44.558594-44.558594zm130.835938 28.632813c4.121094 0 7.464844-3.34375 7.464844-7.464844v-6.242188h24.59375v6.242188c0 4.121094 3.339843 7.464844 7.460937 7.464844s7.464844-3.34375 7.464844-7.464844v-6.242188h11.09375c-7.035157 7.882813-11.320313 18.265625-11.320313 29.636719 0 11.367187 4.285156 21.753906 11.320313 29.636719h-11.09375v-6.246094c0-4.121094-3.339844-7.460938-7.464844-7.460938-4.121094 0-7.460937 3.339844-7.460937 7.460938v6.246094h-24.59375v-6.246094c0-4.121094-3.339844-7.460938-7.464844-7.460938-4.121094 0-7.460938 3.339844-7.460938 7.460938v6.246094h-24.59375v-6.246094c0-4.121094-3.339844-7.460938-7.460937-7.460938-4.125 0-7.464844 3.339844-7.464844 7.460938v6.246094h-24.59375v-6.246094c0-4.121094-3.339844-7.460938-7.460937-7.460938-4.125 0-7.464844 3.339844-7.464844 7.460938v6.246094h-11.09375c7.035156-7.882813 11.320312-18.265625 11.320312-29.636719s-4.285156-21.753906-11.320312-29.636719h11.097656v6.242188c0 4.121094 3.339844 7.464844 7.460938 7.464844 4.121093 0 7.460937-3.34375 7.460937-7.464844v-6.242188h24.59375v6.242188c0 4.121094 3.34375 7.464844 7.464844 7.464844 4.121093 0 7.460937-3.34375 7.460937-7.464844v-6.242188h24.59375v6.242188c0 4.121094 3.339844 7.464844 7.460938 7.464844zm-160.472656 15.925781c0-16.339844 13.296874-29.632813 29.636718-29.632813 16.34375 0 29.636719 13.292969 29.636719 29.632813 0 16.335937-13.285156 29.628906-29.617187 29.636719h-.019532c-16.339844 0-29.636718-13.292969-29.636718-29.636719zm281.425781 0c0 16.34375-13.292969 29.636719-29.632813 29.636719h-.019531c-16.332031-.007813-29.617187-13.300782-29.617187-29.636719 0-16.339844 13.292968-29.632813 29.636718-29.632813 16.339844 0 29.632813 13.292969 29.632813 29.632813zm0 0"/><path d="m231.839844 182.453125h-84.441406c-4.121094 0-7.460938 3.339844-7.460938 7.460937v56.875c0 4.121094 3.339844 7.460938 7.460938 7.460938h109.71875c2.527343 0 4.882812-1.277344 6.257812-3.394531 1.378906-2.117188 1.589844-4.789063.5625-7.097657l-25.277344-56.875c-1.199218-2.695312-3.871094-4.429687-6.820312-4.429687zm-76.980469 56.871094v-41.949219h72.132813l18.644531 41.949219zm0 0"/><path d="m416.355469 32.046875c-3.765625-5.714844-12.980469-3.410156-13.625 3.40625-.617188 6.554687 7.214843 10.652344 12.246093 6.429687 2.855469-2.394531 3.464844-6.746093 1.378907-9.835937zm0 0"/><path d="m486.085938 343.054688-29.886719-44.625c2.824219-12.277344.789062-25.648438-6.757813-36.917969-2.039062-3.046875-4.382812-5.765625-6.949218-8.171875v-42.679688c0-4.121094-3.339844-7.464844-7.460938-7.464844-4.125 0-7.464844 3.34375-7.464844 7.464844v33.230469c-11-4.34375-23.476562-4.519531-34.824218-.023437v-211.53125c0-9.597657 7.8125-17.410157 17.410156-17.410157 9.601562 0 17.414062 7.8125 17.414062 17.410157v148.472656c0 4.121094 3.339844 7.460937 7.464844 7.460937 4.121094 0 7.460938-3.339843 7.460938-7.460937v-148.472656c0-17.828126-14.507813-32.335938-32.339844-32.335938-6.222656 0-12.039063 1.773438-16.976563 4.832031-.011719.007813-.027343.011719-.039062.019531l-251.164063 147.75h-11.441406c-11.273438 0-20.445312 9.171876-20.445312 20.449219v54.886719h-43.886719c-4.121094 0-7.464844 3.339844-7.464844 7.460938 0 4.121093 3.34375 7.464843 7.464844 7.464843h43.886719v21.765625h-95.160157v-21.765625h21.421875c4.121094 0 7.460938-3.34375 7.460938-7.464843 0-4.121094-3.339844-7.460938-7.460938-7.460938h-28.882812c-4.125 0-7.464844 3.339844-7.464844 7.460938v110.085937c0 4.121094 3.339844 7.460937 7.464844 7.460937h110.269531v6.46875h-45.605469c-39.769531 0-72.128906 32.359376-72.128906 72.132813 0 39.769531 32.359375 72.128906 72.128906 72.128906h222.15625c39.769532 0 72.128906-32.359375 72.128906-72.128906 0-39.773437-32.359374-72.132813-72.128906-72.132813h-59.191406v-6.46875h16.601562c23.566407 0 42.738282-19.171874 42.738282-42.738281v-55.503906c0-10.503906-2.164063-20.699219-6.433594-30.300781l-14.105469-31.742188 103.921875-98.003906v158.675781c-7.191406 6.710938-12.097656 15.476563-14.042968 25.316407-2.453126 12.390624.066406 24.992187 7.097656 35.484374 5.035156 7.523438 11.960937 13.300782 20.042968 16.882813l2.457032 105.21875c-15.921875 12.671875-22.640625 33.621094-16.761719 53.421875l5.050781 17.007812c.671875 2.273438 2.390625 4.089844 4.621094 4.894532.824219.296875 1.679688.445312 2.53125.445312 1.460938 0 2.910156-.429687 4.152344-1.261718l69.105468-46.269532c40.089844-26.855468 50.863282-81.320312 24.015626-121.417968zm-376-63.5v21.773437h-95.160157v-21.773437zm-95.160157 36.699218h95.160157v21.765625h-95.160157zm336.5625 115.289063c0 31.542969-25.660156 57.207031-57.203125 57.207031h-222.15625c-31.542968 0-57.203125-25.664062-57.203125-57.207031 0-31.539063 25.660157-57.203125 57.203125-57.203125h222.15625c31.542969 0 57.203125 25.664062 57.203125 57.203125zm-131.320312-72.128907h-87.507813v-6.46875h87.507813zm59.339843-104.710937v55.503906c0 15.335938-12.476562 27.8125-27.8125 27.8125h-126.6875v-164.96875c0-3.046875 2.480469-5.523437 5.523438-5.523437h115.859375l27.96875 62.933594c3.417969 7.683593 5.148437 15.835937 5.148437 24.242187zm-12.039062-76.496094-9.410156-21.171875c-1.199219-2.695312-3.871094-4.433594-6.820313-4.433594h-79.832031l206.441406-121.4375c-.015625.390626-.03125.78125-.03125 1.171876v41.804687zm115.800781 127.621094c-4.808593-7.183594-6.53125-15.804687-4.855469-24.285156 1.675782-8.480469 6.554688-15.796875 13.738282-20.605469 5.515625-3.695312 11.765625-5.460938 17.957031-5.460938 10.441406 0 20.699219 5.035157 26.933594 14.34375 9.925781 14.824219 5.945312 34.960938-8.882813 44.890626-7.179687 4.808593-15.804687 6.53125-24.285156 4.855468-8.476562-1.679687-15.796875-6.554687-20.605469-13.738281zm70.492188 146.242187-60.679688 40.628907-2.164062-7.292969c-4.414063-14.855469 1.277343-30.632812 14.15625-39.253906 2.121093-1.417969 3.367187-3.824219 3.308593-6.375l-2.449218-104.863282c1.441406.132813 2.882812.207032 4.320312.207032 9.269532 0 18.335938-2.738282 26.214844-8.011719 5.113281-3.425781 9.332031-7.6875 12.621094-12.476563l24.59375 36.726563c22.269531 33.257813 13.332031 78.4375-19.921875 100.710937zm0 0"/></svg>