<svg fill="none" height="24" viewBox="0 0 24 24" width="24" xmlns="http://www.w3.org/2000/svg"><path d="m6.5 19.5 3.5-5h4l3.5 5z" fill="#4c3939"/><path d="m21 8h-18v-1.5h18z" fill="#e53d3d"/><path d="m15.2727 16v-2.7273c0-1.8075-1.4652-3.2727-3.2727-3.2727s-3.27271 1.4653-3.27271 3.2727v2.7273h-2.45459v-2.7273c0-1.8074-1.46525-3.2727-3.27273-3.2727l.00002-2h18.00001v2c-1.8075 0-3.2727 1.4653-3.2727 3.2727v2.7273z" fill="#ffa115"/><g clip-rule="evenodd" fill-rule="evenodd"><path d="m8.22729 13.2727c0-2.0836 1.68911-3.7727 3.77271-3.7727s3.7727 1.6891 3.7727 3.7727v2.7273c0 .2761-.2238.5-.5.5-.2761 0-.5-.2239-.5-.5v-2.7273c0-1.5313-1.2413-2.7727-2.7727-2.7727-1.5313 0-2.77271 1.2414-2.77271 2.7727l.00001 2.7273c0 .2761-.22386.5-.50001.5-.27614 0-.49999-.2239-.49999-.5z" fill="#2b0c0a"/><path d="m21 10.5c-1.5313 0-2.7727 1.2414-2.7727 2.7727v2.7273c0 .2761-.2239.5-.5.5-.2762 0-.5-.2239-.5-.5v-2.7273c0-2.0836 1.6891-3.7727 3.7727-3.7727.2761 0 .5.22386.5.5 0 .2761-.2239.5-.5.5z" fill="#2b0c0a"/><path d="m2.99998 10.5c1.53133 0 2.77273 1.2414 2.77273 2.7727v2.7273c0 .2761.22385.5.5.5.27614 0 .5-.2239.5-.5v-2.7273c0-2.0836-1.68911-3.7727-3.77273-3.7727-.27614 0-.5.22386-.5.5 0 .2761.22386.5.5.5z" fill="#2b0c0a"/><path d="m2.5 8c0-.27614.22386-.5.5-.5h18c.2761 0 .5.22386.5.5s-.2239.5-.5.5h-18c-.27614 0-.5-.22386-.5-.5z" fill="#2b0c0a"/><path d="m2.5 6.5c0-.27614.22386-.5.5-.5h18c.2761 0 .5.22386.5.5s-.2239.5-.5.5h-18c-.27614 0-.5-.22386-.5-.5z" fill="#2b0c0a"/><path d="m10.2867 14.0904c.2263.1584.2813.4701.1229.6964l-3.49997 5c-.15836.2262-.47012.2812-.69635.1229-.22622-.1584-.28124-.4702-.12288-.6964l3.5-5c.15835-.2262.4701-.2812.6963-.1229z" fill="#2b0c0a"/><path d="m13.7133 14.0904c-.2263.1584-.2813.4701-.1229.6964l3.5 5c.1583.2262.4701.2812.6963.1229.2262-.1584.2813-.4702.1229-.6964l-3.5-5c-.1584-.2262-.4701-.2812-.6963-.1229z" fill="#2b0c0a"/><path d="m12 15c.2761 0 .5.2239.5.5v.5c0 .2761-.2239.5-.5.5s-.5-.2239-.5-.5v-.5c0-.2761.2239-.5.5-.5z" fill="#fff"/><path d="m12 17c.2761 0 .5.2239.5.5v1c0 .2761-.2239.5-.5.5s-.5-.2239-.5-.5v-1c0-.2761.2239-.5.5-.5z" fill="#fff"/></g></svg>