<svg id="_x31__x2C_5_px" enable-background="new 0 0 24 24" viewBox="0 0 24 24" xmlns="http://www.w3.org/2000/svg"><path d="m12 15.5c-4.135 0-7.5-3.365-7.5-7.5s3.365-7.5 7.5-7.5 7.5 3.365 7.5 7.5-3.365 7.5-7.5 7.5z" fill="#eceff1"/><g fill="#64b5f6"><path d="m6.647 10.25h-1.41l-.129-.419c-.204-.656-.306-1.35-.306-2.061 0-2.684 1.444-5.083 3.678-6.112l.239-.11.505.289c.944.539 1.53 1.605 1.53 2.783v.488c0 1.149-.732 2.158-1.742 2.4-.211.047-.351.181-.432.286-.092.127-.15.312-.155.503 0 .5-.182.994-.514 1.375-.351.378-.795.578-1.264.578z"/><path d="m12.344 15.345c-.081 0-.164-.003-.245-.016l-.229-.038-.529-.652c-.897-1.107-.817-2.706.187-3.72.702-.701 1.806-.942 2.749-.57l.519.356c.23.09.487.013.62-.185.372-.581 1.451-1.058 2.117-.679l1.051.925-.194.484c-.998 2.488-3.371 4.095-6.046 4.095z"/><path d="m16.949 6.192c-.699 0-1.33-.359-1.689-.96-.533-.891-.2-2.675-.128-3.023l.139-.672.616.303c1.437.707 2.501 1.994 2.921 3.533l.163.596-1.776.206c-.093.01-.165.017-.246.017z"/></g><path d="m13.175 23.25h-2.351c-.278 0-.504-.226-.504-.504v-2.351c0-.278.226-.504.504-.504h2.351c.278 0 .504.226.504.504v2.351c0 .278-.225.504-.504.504z" fill="#2196f3"/><path d="m12 20.25c-.414 0-.75-.336-.75-.75v-4c0-.414.336-.75.75-.75s.75.336.75.75v4c0 .414-.336.75-.75.75z"/><path d="m13.75 24h-3.5c-.414 0-.75-.336-.75-.75v-3.5c0-.414.336-.75.75-.75h3.5c.414 0 .75.336.75.75v3.5c0 .414-.336.75-.75.75zm-2.75-1.5h2v-2h-2z"/><path d="m10.25 22.25h-6.5c-.414 0-.75-.336-.75-.75s.336-.75.75-.75h6.5c.414 0 .75.336.75.75s-.336.75-.75.75z"/><path d="m20.25 22.25h-6.5c-.414 0-.75-.336-.75-.75s.336-.75.75-.75h6.5c.414 0 .75.336.75.75s-.336.75-.75.75z"/><path d="m12 16c-4.411 0-8-3.589-8-8s3.589-8 8-8 8 3.589 8 8-3.589 8-8 8zm0-14.5c-3.584 0-6.5 2.916-6.5 6.5s2.916 6.5 6.5 6.5 6.5-2.916 6.5-6.5-2.916-6.5-6.5-6.5z"/><path d="m6.48 11h-1.36c-.414 0-.75-.336-.75-.75s.336-.75.75-.75h1.36c.238 0 .465-.092.638-.259.156-.162.252-.389.252-.621.014-.577.211-1.12.555-1.549.395-.459.883-.748 1.429-.857.669-.144 1.146-.735 1.146-1.434v-.59c0-.859-.477-1.639-1.243-2.033l-.37-.191c-.368-.19-.513-.642-.323-1.01s.64-.513 1.011-.323l.369.19c1.268.653 2.056 1.943 2.056 3.367v.59c0 1.389-.984 2.61-2.342 2.903-.283.057-.47.219-.58.347-.123.153-.202.377-.208.608 0 .605-.245 1.202-.691 1.663-.472.457-1.069.699-1.699.699z"/><path d="m11.82 15.99c-.218 0-.435-.095-.582-.277l-.471-.58c-1.103-1.359-1.004-3.324.229-4.57.863-.861 2.219-1.156 3.377-.7l.33.13c.283.111.599.016.762-.228.457-.713 1.476-.992 2.294-.527l1.354.808c.356.212.473.672.261 1.028-.213.355-.673.471-1.028.26l-1.341-.8c-.051-.029-.095-.034-.115-.034-.052 0-.123.015-.168.085-.559.841-1.637 1.177-2.57.801l-.326-.128c-.62-.245-1.317-.084-1.765.363-.691.698-.748 1.803-.128 2.567l.47.58c.262.322.212.794-.109 1.055-.14.113-.308.167-.474.167z"/><path d="m17.07 7c-.986 0-1.878-.507-2.384-1.356-.764-1.276-.901-2.799-.378-4.18.146-.388.579-.583.967-.436.388.146.582.58.436.967-.359.949-.264 1.999.263 2.879.264.44.757.669 1.257.611l1.653-.191c.404-.049.784.247.831.659.048.412-.247.784-.659.832l-1.64.19c-.129.015-.231.025-.346.025z"/></svg>