<svg id="Layer_1" height="512" viewBox="0 0 48 48" width="512" xmlns="http://www.w3.org/2000/svg" data-name="Layer 1"><circle cx="24" cy="24" fill="#fd3730" r="21"/><path d="m28.5 39a19.491 19.491 0 0 1 -12.585-34.382 21 21 0 1 0 27.467 27.467 19.445 19.445 0 0 1 -14.882 6.915z" fill="#d3241f"/><circle cx="24" cy="24" fill="#eaeff0" r="15"/><path d="m24 39a15.093 15.093 0 0 0 2.1-.163 19.49 19.49 0 0 1 -16.937-16.937 14.9 14.9 0 0 0 14.837 17.1z" fill="#d9e1e2"/><circle cx="24" cy="24" fill="#fd3730" r="10"/><circle cx="24" cy="24" fill="#eaeff0" r="4"/><path d="m36.849 7.115v4.036h4.036a.5.5 0 0 0 .353-.151l3.243-3.242a.5.5 0 0 0 -.354-.854h-2.535a.5.5 0 0 1 -.5-.5v-2.531a.5.5 0 0 0 -.854-.354l-3.238 3.243a.5.5 0 0 0 -.151.353z" fill="#fac100"/><path d="m43.726 14.265a1 1 0 1 0 -1.791.89 19.726 19.726 0 0 1 2.065 8.845 20 20 0 1 1 -20-20 19.731 19.731 0 0 1 8.846 2.065 1 1 0 1 0 .888-1.791 21.7 21.7 0 0 0 -9.734-2.274 22 22 0 1 0 22 22 21.723 21.723 0 0 0 -2.274-9.735z"/><path d="m32.259 11.445a1 1 0 0 0 -.375-1.364 16.006 16.006 0 1 0 6.035 6.034 1 1 0 0 0 -1.738.989 14.007 14.007 0 1 1 -5.281-5.285 1 1 0 0 0 1.359-.374z"/><path d="m27.281 15.619a1 1 0 1 0 .739-1.858 10.824 10.824 0 0 0 -4.02-.761 11 11 0 1 0 11 11 10.8 10.8 0 0 0 -.762-4.02 1 1 0 1 0 -1.857.74 8.821 8.821 0 0 1 .619 3.28 9 9 0 1 1 -9-9 8.834 8.834 0 0 1 3.281.619z"/><path d="m22.853 21.229a1 1 0 0 0 -.766-1.848 5 5 0 1 0 6.532 6.532 1 1 0 0 0 -1.848-.765 3 3 0 1 1 -3.918-3.919z"/><path d="m23.293 23.293a1 1 0 1 0 1.414 1.414l12.557-12.556h3.621a1.487 1.487 0 0 0 1.06-.44l3.244-3.243a1.5 1.5 0 0 0 -1.062-2.56h-2.035v-2.035a1.5 1.5 0 0 0 -2.561-1.061l-3.242 3.243a1.49 1.49 0 0 0 -.439 1.06v3.622zm14.557-15.971 2.242-2.242v1.328a1.5 1.5 0 0 0 1.5 1.5h1.329l-2.243 2.243h-2.828z"/></svg>